<?xml version="1.0" encoding="UTF-8"?>
<svg version="1.1" xmlns="http://www.w3.org/2000/svg" width="16" height="16">
<path d="M0 0 C0.66 0 1.32 0 2 0 C2 0.99 2 1.98 2 3 C2.66 3 3.32 3 4 3 C4 2.01 4 1.02 4 0 C4.66 0 5.32 0 6 0 C6 1.32 6 2.64 6 4 C6.99 4 7.98 4 9 4 C9 4.66 9 5.32 9 6 C8.01 6 7.02 6 6 6 C6 6.66 6 7.32 6 8 C5.34 8 4.68 8 4 8 C4 7.01 4 6.02 4 5 C3.34 5 2.68 5 2 5 C2 5.99 2 6.98 2 8 C1.34 8 0.68 8 0 8 C0 5.36 0 2.72 0 0 Z " fill="#000000" transform="translate(0,4)"/>
<path d="M0 0 C-0.33 1.32 -0.66 2.64 -1 4 C-1.66 4 -2.32 4 -3 4 C-3 4.99 -3 5.98 -3 7 C-3.99 6.67 -4.98 6.34 -6 6 C-5.67 4.68 -5.34 3.36 -5 2 C-5.99 2 -6.98 2 -8 2 C-8 1.34 -8 0.68 -8 0 C-4.71023192 -1.09658936 -3.28696233 -0.79953138 0 0 Z " fill="#000000" transform="translate(16,5)"/>
</svg>
